<svg width="387" height="219" viewBox="0 0 387 219" fill="none" xmlns="http://www.w3.org/2000/svg">
<g filter="url(#filter0_d_143_3408)">
<g clip-path="url(#clip0_143_3408)">
<rect x="10" y="10" width="367" height="199" rx="10" fill="white"/>
<path d="M63 235V21" stroke="#F5F5F5" stroke-width="3" stroke-linecap="round"/>
<path d="M152 235V21" stroke="#F5F5F5" stroke-width="3" stroke-linecap="round"/>
<path d="M241 235V21" stroke="#F5F5F5" stroke-width="3" stroke-linecap="round"/>
<path d="M330 235V21" stroke="#F5F5F5" stroke-width="3" stroke-linecap="round"/>
<circle cx="63" cy="111" r="6" fill="#007AFF"/>
<path d="M63 111L108.5 142.5L152 128.5L195 89L241 118L286 148.5L330.5 106" stroke="#007AFF" stroke-width="3" stroke-linecap="round"/>
<circle cx="108" cy="63" r="6" fill="#FF3B30"/>
<circle cx="152" cy="89" r="6" fill="#FF3B30"/>
<circle cx="195" cy="51" r="6" fill="#FF3B30"/>
<circle cx="241" cy="89" r="6" fill="#FF3B30"/>
<circle cx="63" cy="83" r="6" fill="#FF3B30"/>
<path d="M63 83L108 63L152 89.5L194.5 51L241.5 89.5" stroke="#FF544B" stroke-width="3" stroke-linecap="round"/>
<circle cx="108" cy="142" r="6" fill="#007AFF"/>
<circle cx="152" cy="128" r="6" fill="#007AFF"/>
<circle cx="195" cy="89" r="6" fill="#007AFF"/>
<circle cx="241" cy="118" r="6" fill="#007AFF"/>
<circle cx="286" cy="148" r="6" fill="#007AFF"/>
<circle cx="330" cy="106" r="6" fill="#007AFF"/>
</g>
<rect x="10.5" y="10.5" width="366" height="198" rx="9.5" stroke="white"/>
</g>
<defs>
<filter id="filter0_d_143_3408" x="0.7" y="0.7" width="385.6" height="217.6" filterUnits="userSpaceOnUse" color-interpolation-filters="sRGB">
<feFlood flood-opacity="0" result="BackgroundImageFix"/>
<feColorMatrix in="SourceAlpha" type="matrix" values="0 0 0 0 0 0 0 0 0 0 0 0 0 0 0 0 0 0 127 0" result="hardAlpha"/>
<feOffset/>
<feGaussianBlur stdDeviation="4.65"/>
<feComposite in2="hardAlpha" operator="out"/>
<feColorMatrix type="matrix" values="0 0 0 0 0 0 0 0 0 0 0 0 0 0 0 0 0 0 0.13 0"/>
<feBlend mode="normal" in2="BackgroundImageFix" result="effect1_dropShadow_143_3408"/>
<feBlend mode="normal" in="SourceGraphic" in2="effect1_dropShadow_143_3408" result="shape"/>
</filter>
<clipPath id="clip0_143_3408">
<rect x="10" y="10" width="367" height="199" rx="10" fill="white"/>
</clipPath>
</defs>
</svg>
